<svg xmlns="http://www.w3.org/2000/svg" style="display: none;">
  <symbol id="icon-skip" viewBox="0 0 48 48">
    <circle cx="24" cy="24" r="15" fill="none" stroke="currentColor" stroke-width="5.4" />
    <path d="M14 34 34 14" fill="none" stroke="currentColor" stroke-width="6.4" stroke-linecap="round" />
  </symbol>
  <symbol id="icon-reverse" viewBox="0 0 48 48">
    <path d="M14 15h16l-3.8-3.8a2.2 2.2 0 1 1 3.1-3.1l7.6 7.6-7.6 7.6a2.2 2.2 0 1 1-3.1-3.1L30 19.4H18.2a7.8 7.8 0 0 0-6.7 3.8 2.2 2.2 0 1 1-3.8-2.3A12.2 12.2 0 0 1 18.2 15Z" fill="currentColor" />
    <path d="M34 33H18l3.8 3.8a2.2 2.2 0 1 1-3.1 3.1L11.1 32l7.6-7.6a2.2 2.2 0 1 1 3.1 3.1L18 28.6h11.8a7.8 7.8 0 0 0 6.7-3.8 2.2 2.2 0 1 1 3.8 2.3A12.2 12.2 0 0 1 29.8 33Z" fill="currentColor" />
  </symbol>
  <symbol id="icon-draw2" viewBox="0 0 48 48">
    <rect x="11" y="12" width="18" height="25" rx="4" fill="none" stroke="currentColor" stroke-width="4" transform="rotate(-8 20 24.5)" />
    <rect x="19" y="9" width="18" height="25" rx="4" fill="none" stroke="currentColor" stroke-width="4" transform="rotate(8 28 21.5)" />
  </symbol>
  <symbol id="icon-draw5" viewBox="0 0 48 48">
    <rect x="8" y="14" width="16" height="23" rx="3" fill="none" stroke="currentColor" stroke-width="4" transform="rotate(-12 16 25)" />
    <rect x="17" y="10" width="16" height="23" rx="3" fill="none" stroke="currentColor" stroke-width="4" />
    <rect x="25" y="13" width="16" height="23" rx="3" fill="none" stroke="currentColor" stroke-width="4" transform="rotate(12 33 24)" />
  </symbol>
  <symbol id="icon-flip" viewBox="0 0 48 48">
    <path d="M9 17h24l-5-5m5 5-5 5M39 31H15l5 5m-5-5 5-5" fill="none" stroke="currentColor" stroke-width="4.4" stroke-linecap="round" stroke-linejoin="round" />
  </symbol>
  <symbol id="icon-wild" viewBox="0 0 64 64">
    <g stroke="rgba(255,255,255,0.68)" stroke-width="1">
      <rect x="27" y="1" width="10" height="10" rx="2" fill="#ff4f5e" transform="rotate(45 32 6)" />
      <rect x="53" y="27" width="10" height="10" rx="2" fill="#ffd84d" transform="rotate(45 58 32)" />
      <rect x="27" y="53" width="10" height="10" rx="2" fill="#36e18e" transform="rotate(45 32 58)" />
      <rect x="1" y="27" width="10" height="10" rx="2" fill="#58a6ff" transform="rotate(45 6 32)" />
    </g>
    <path d="M32 8 38.8 24.6 56 25.8 42.7 37.4 46.6 55 32 45.6 17.4 55 21.3 37.4 8 25.8 25.2 24.6Z" fill="#f5c84c" stroke="#5a3608" stroke-width="1.3" stroke-linejoin="round" transform="translate(32 32) scale(0.78) translate(-32 -32)" />
  </symbol>
  <symbol id="icon-wild-dark" viewBox="0 0 64 64">
    <g stroke="rgba(255,255,255,0.68)" stroke-width="1">
      <rect x="27" y="1" width="10" height="10" rx="2" fill="#ff8a34" transform="rotate(45 32 6)" />
      <rect x="53" y="27" width="10" height="10" rx="2" fill="#2dd498" transform="rotate(45 58 32)" />
      <rect x="27" y="53" width="10" height="10" rx="2" fill="#9b6dff" transform="rotate(45 32 58)" />
      <rect x="1" y="27" width="10" height="10" rx="2" fill="#ff5fb7" transform="rotate(45 6 32)" />
    </g>
    <path d="M32 8 38.8 24.6 56 25.8 42.7 37.4 46.6 55 32 45.6 17.4 55 21.3 37.4 8 25.8 25.2 24.6Z" fill="#f5c84c" stroke="#5a3608" stroke-width="1.3" stroke-linejoin="round" transform="translate(32 32) scale(0.78) translate(-32 -32)" />
  </symbol>
  <symbol id="icon-color-red" viewBox="0 0 48 48"><path fill="currentColor" d="M25 4c7 8 13 15 13 25 0 9-6 15-14 15S10 38 10 29c0-7 4-12 9-18-1 6 1 9 5 11 3-5 3-10 1-18Z" /></symbol>
  <symbol id="icon-color-blue" viewBox="0 0 48 48"><path fill="currentColor" d="M6 28c6-8 13-8 20-3 5 4 9 4 16-3-2 10-9 16-18 14-6-1-10-6-18-8Zm0 10c6-5 12-5 19-1 6 3 10 2 17-4-3 8-10 12-19 10-6-1-10-4-17-5Z" /></symbol>
  <symbol id="icon-color-green" viewBox="0 0 48 48"><path fill="currentColor" d="M42 8C25 8 11 17 9 34c12 3 25-3 33-26ZM10 39c7-11 16-18 29-26-10 9-18 18-23 30l-6-4Z" /></symbol>
  <symbol id="icon-color-yellow" viewBox="0 0 48 48"><path fill="currentColor" d="M28 3 9 28h14l-3 17 19-25H25l3-17Z" /></symbol>
  <symbol id="icon-star" viewBox="0 0 48 48"><path d="M24 4 29 18 44 19 32 28 36 43 24 34 12 43 16 28 4 19 19 18Z" fill="currentColor" /></symbol>
  <symbol id="icon-color-orange" viewBox="0 0 48 48"><circle cx="24" cy="25" r="15" fill="currentColor" /><path d="M25 10c2-5 7-7 12-5-2 5-6 8-12 8Z" fill="currentColor" /></symbol>
  <symbol id="icon-color-cyan" viewBox="0 0 48 48"><path fill="currentColor" d="M24 4C17 15 10 23 10 31a14 14 0 0 0 28 0c0-8-7-16-14-27Z" /></symbol>
  <symbol id="icon-color-purple" viewBox="0 0 48 48"><path fill="currentColor" d="m24 3 6 14 15 2-11 10 3 15-13-8-13 8 3-15L3 19l15-2 6-14Z" /></symbol>
  <symbol id="icon-color-pink" viewBox="0 0 48 48"><path fill="currentColor" d="M24 42S7 32 7 18C7 8 20 5 24 14 28 5 41 8 41 18c0 14-17 24-17 24Z" /></symbol>
</svg>